<svg width="122" height="30" viewBox="0 0 122 30" fill="none" xmlns="http://www.w3.org/2000/svg">
<g opacity="0.9">
<rect width="122" height="26" rx="4" fill="#273142"/>
<path d="M12.29 18.091C11.7527 18.091 11.2717 18.0087 10.847 17.844C10.4223 17.6793 10.0627 17.4237 9.768 17.077C9.47333 16.7303 9.248 16.2927 9.092 15.764C8.936 15.2267 8.858 14.5853 8.858 13.84V12.8C8.858 11.4567 9.16133 10.4557 9.768 9.797C10.3747 9.13833 11.2153 8.809 12.29 8.809C13.3647 8.809 14.2053 9.13833 14.812 9.797C15.4187 10.4557 15.722 11.4567 15.722 12.8V13.84C15.722 14.5853 15.644 15.2267 15.488 15.764C15.332 16.2927 15.1067 16.7303 14.812 17.077C14.5173 17.4237 14.1577 17.6793 13.733 17.844C13.3083 18.0087 12.8273 18.091 12.29 18.091ZM12.29 17.012C12.6367 17.012 12.9487 16.96 13.226 16.856C13.5033 16.7433 13.7373 16.5613 13.928 16.31C14.1187 16.0587 14.2617 15.7337 14.357 15.335C14.461 14.9277 14.513 14.4293 14.513 13.84V12.8C14.513 11.7513 14.318 11.006 13.928 10.564C13.538 10.1133 12.992 9.888 12.29 9.888C11.588 9.888 11.042 10.1133 10.652 10.564C10.262 11.006 10.067 11.7513 10.067 12.8V13.84C10.067 14.4293 10.1147 14.9277 10.21 15.335C10.314 15.7337 10.4613 16.0587 10.652 16.31C10.8427 16.5613 11.0723 16.7433 11.341 16.856C11.6183 16.96 11.9347 17.012 12.29 17.012ZM20.092 18.091C19.6587 18.091 19.2687 18.0217 18.922 17.883C18.5754 17.7443 18.2764 17.5277 18.025 17.233C17.7824 16.9383 17.5917 16.5657 17.453 16.115C17.323 15.6643 17.258 15.1313 17.258 14.516V13.58C17.258 12.9733 17.284 12.384 17.336 11.812C17.388 11.24 17.5094 10.733 17.7 10.291C17.8994 9.84033 18.1854 9.47633 18.558 9.199C18.9307 8.913 19.4377 8.75267 20.079 8.718C20.417 8.70067 20.7074 8.68333 20.95 8.666C21.1927 8.64867 21.4094 8.627 21.6 8.601C21.7907 8.575 21.9554 8.54033 22.094 8.497C22.2414 8.445 22.3887 8.38433 22.536 8.315V9.42C22.4667 9.46333 22.38 9.50233 22.276 9.537C22.1807 9.563 22.0464 9.59333 21.873 9.628C21.7084 9.654 21.4917 9.68 21.223 9.706C20.963 9.72333 20.638 9.745 20.248 9.771C19.8754 9.78833 19.5677 9.86633 19.325 10.005C19.0824 10.1437 18.8874 10.3257 18.74 10.551C18.5927 10.7677 18.4844 11.0233 18.415 11.318C18.3457 11.6127 18.3024 11.9203 18.285 12.241C18.4844 11.9377 18.7444 11.682 19.065 11.474C19.3944 11.2573 19.78 11.149 20.222 11.149C20.6207 11.149 20.9847 11.2183 21.314 11.357C21.652 11.487 21.938 11.6777 22.172 11.929C22.4147 12.1717 22.601 12.4707 22.731 12.826C22.861 13.1727 22.926 13.5627 22.926 13.996V14.984C22.926 15.9893 22.6704 16.7607 22.159 17.298C21.6477 17.8267 20.9587 18.091 20.092 18.091ZM20.092 17.077C20.612 17.077 21.0237 16.9123 21.327 16.583C21.6304 16.245 21.782 15.712 21.782 14.984V13.996C21.782 13.398 21.6304 12.943 21.327 12.631C21.0237 12.319 20.612 12.163 20.092 12.163C19.572 12.163 19.1604 12.319 18.857 12.631C18.5537 12.943 18.402 13.398 18.402 13.996V14.984C18.402 15.712 18.5537 16.245 18.857 16.583C19.1604 16.9123 19.572 17.077 20.092 17.077ZM24.5775 11.11H25.7345V13.996H28.8805V11.11H30.0375V18H28.8805V14.984H25.7345V18H24.5775V11.11ZM34.5266 18.091C33.6599 18.091 32.9709 17.8267 32.4596 17.298C31.9483 16.7607 31.6926 15.9893 31.6926 14.984V13.996C31.6926 13.528 31.7576 13.112 31.8876 12.748C32.0263 12.3753 32.2169 12.0633 32.4596 11.812C32.7109 11.552 33.0099 11.357 33.3566 11.227C33.7033 11.0883 34.0933 11.019 34.5266 11.019C34.9599 11.019 35.3499 11.0883 35.6966 11.227C36.0433 11.357 36.3379 11.552 36.5806 11.812C36.8319 12.0633 37.0226 12.3753 37.1526 12.748C37.2913 13.112 37.3606 13.528 37.3606 13.996V14.984C37.3606 15.9893 37.1049 16.7607 36.5936 17.298C36.0823 17.8267 35.3933 18.091 34.5266 18.091ZM34.5266 17.077C35.0466 17.077 35.4583 16.9123 35.7616 16.583C36.0649 16.245 36.2166 15.712 36.2166 14.984V13.996C36.2166 13.3373 36.0649 12.8477 35.7616 12.527C35.4583 12.1977 35.0466 12.033 34.5266 12.033C34.0066 12.033 33.5949 12.1977 33.2916 12.527C32.9883 12.8477 32.8366 13.3373 32.8366 13.996V14.984C32.8366 15.712 32.9883 16.245 33.2916 16.583C33.5949 16.9123 34.0066 17.077 34.5266 17.077ZM39.0121 11.11H41.5861C42.4354 11.11 43.0594 11.2877 43.4581 11.643C43.8654 11.9897 44.0691 12.4403 44.0691 12.995C44.0691 13.1423 44.0431 13.2897 43.9911 13.437C43.9478 13.5843 43.8784 13.723 43.7831 13.853C43.6964 13.983 43.5881 14.0957 43.4581 14.191C43.3368 14.2863 43.1981 14.36 43.0421 14.412C43.4668 14.516 43.7874 14.7153 44.0041 15.01C44.2208 15.3047 44.3291 15.647 44.3291 16.037C44.3291 16.635 44.1254 17.1117 43.7181 17.467C43.3194 17.8223 42.6954 18 41.8461 18H39.0121V11.11ZM41.8461 17.025C42.3401 17.025 42.6868 16.9383 42.8861 16.765C43.0854 16.583 43.1851 16.323 43.1851 15.985C43.1851 15.6557 43.0854 15.4043 42.8861 15.231C42.6868 15.0577 42.3401 14.971 41.8461 14.971H40.1431V17.025H41.8461ZM41.5861 14.009C42.0801 14.009 42.4268 13.9267 42.6261 13.762C42.8254 13.5887 42.9251 13.3503 42.9251 13.047C42.9251 12.7437 42.8254 12.5097 42.6261 12.345C42.4268 12.1717 42.0801 12.085 41.5861 12.085H40.1431V14.009H41.5861ZM45.9691 11.11H47.0741V16.375L50.2851 11.11H51.4291V18H50.3241V12.735L47.1131 18H45.9691V11.11ZM54.8262 12.111H52.6292V11.11H58.1672V12.111H55.9702V18H54.8262V12.111ZM59.3627 11.11H60.5197V13.736H62.0797C62.9897 13.736 63.6484 13.9223 64.0557 14.295C64.463 14.6677 64.6667 15.1963 64.6667 15.881C64.6667 16.557 64.463 17.0813 64.0557 17.454C63.6484 17.818 62.9897 18 62.0797 18H59.3627V11.11ZM62.0797 16.999C62.6257 16.999 63.0027 16.908 63.2107 16.726C63.4187 16.544 63.5227 16.258 63.5227 15.868C63.5227 15.4693 63.4187 15.179 63.2107 14.997C63.0027 14.815 62.6257 14.724 62.0797 14.724H60.5197V16.999H62.0797ZM68.5491 16.986H69.1601C69.3595 16.804 69.5198 16.5787 69.6411 16.31C69.7625 16.0327 69.8578 15.7207 69.9271 15.374C69.9965 15.0273 70.0441 14.6547 70.0701 14.256C70.0961 13.8487 70.1091 13.4283 70.1091 12.995V11.11H74.5811V16.986H75.4261V19.625H74.3211V18H69.6671V19.625H68.5491V16.986ZM73.4241 16.986V12.111H71.1881V13.034C71.1881 13.8747 71.1405 14.62 71.0451 15.27C70.9498 15.9113 70.7505 16.4833 70.4471 16.986H73.4241ZM78.5571 18.078C77.9244 18.078 77.4304 17.9047 77.0751 17.558C76.7198 17.2027 76.5421 16.7087 76.5421 16.076C76.5421 15.4087 76.7328 14.9017 77.1141 14.555C77.4954 14.1997 78.1064 14.022 78.9471 14.022H80.5851V13.359C80.5851 12.891 80.4768 12.553 80.2601 12.345C80.0521 12.1283 79.7271 12.02 79.2851 12.02C79.0598 12.02 78.8691 12.046 78.7131 12.098C78.5571 12.1413 78.4314 12.2063 78.3361 12.293C78.2408 12.371 78.1671 12.462 78.1151 12.566C78.0631 12.67 78.0328 12.774 78.0241 12.878H76.9061C76.9321 12.6093 76.9928 12.3623 77.0881 12.137C77.1834 11.9117 77.3264 11.7167 77.5171 11.552C77.7078 11.3873 77.9461 11.2573 78.2321 11.162C78.5268 11.0667 78.8821 11.019 79.2981 11.019C80.1301 11.019 80.7411 11.214 81.1311 11.604C81.5211 11.9853 81.7161 12.5703 81.7161 13.359V18H80.7151V16.856C80.6284 17.0033 80.5288 17.1507 80.4161 17.298C80.3034 17.4453 80.1604 17.5797 79.9871 17.701C79.8224 17.8137 79.6231 17.9047 79.3891 17.974C79.1551 18.0433 78.8778 18.078 78.5571 18.078ZM78.8821 17.09C79.4021 17.09 79.8138 16.9383 80.1171 16.635C80.4291 16.323 80.5851 15.9027 80.5851 15.374V14.958H78.9991C78.5051 14.958 78.1584 15.049 77.9591 15.231C77.7684 15.4043 77.6731 15.6817 77.6731 16.063C77.6731 16.3663 77.7728 16.6133 77.9721 16.804C78.1714 16.9947 78.4748 17.09 78.8821 17.09ZM83.598 11.11H84.755V13.996H87.901V11.11H89.058V18H87.901V14.984H84.755V18H83.598V11.11ZM91.0121 11.11H92.1691V13.996H95.3151V11.11H96.4721V18H95.3151V14.984H92.1691V18H91.0121V11.11ZM98.4262 11.11H99.5832V13.736H100.701C101.611 13.736 102.27 13.9223 102.677 14.295C103.093 14.6677 103.301 15.1963 103.301 15.881C103.301 16.557 103.093 17.0813 102.677 17.454C102.27 17.818 101.611 18 100.701 18H98.4262V11.11ZM100.701 17.025C101.265 17.025 101.65 16.934 101.858 16.752C102.066 16.57 102.17 16.2753 102.17 15.868C102.17 15.4607 102.066 15.166 101.858 14.984C101.65 14.802 101.265 14.711 100.701 14.711H99.5832V17.025H100.701ZM104.289 11.11H105.446V18H104.289V11.11ZM109.872 18.091C109.456 18.091 109.074 18.026 108.728 17.896C108.39 17.7573 108.099 17.558 107.857 17.298C107.623 17.0293 107.436 16.7043 107.298 16.323C107.168 15.933 107.103 15.4867 107.103 14.984V13.996C107.103 13.0253 107.341 12.2887 107.818 11.786C108.303 11.2747 108.966 11.019 109.807 11.019C110.647 11.019 111.306 11.2747 111.783 11.786C112.268 12.2887 112.511 13.034 112.511 14.022V14.893H108.247C108.255 15.6817 108.403 16.2493 108.689 16.596C108.983 16.934 109.378 17.103 109.872 17.103C110.088 17.103 110.275 17.077 110.431 17.025C110.595 16.9643 110.73 16.8863 110.834 16.791C110.946 16.6957 111.033 16.5873 111.094 16.466C111.154 16.3447 111.198 16.219 111.224 16.089H112.381C112.242 16.765 111.96 17.2677 111.536 17.597C111.111 17.9263 110.556 18.091 109.872 18.091ZM109.82 12.007C109.326 12.007 108.94 12.1587 108.663 12.462C108.394 12.7567 108.255 13.255 108.247 13.957H111.432C111.414 13.255 111.267 12.7567 110.99 12.462C110.721 12.1587 110.331 12.007 109.82 12.007Z" fill="white"/>
</g>
<path opacity="0.9" d="M61 30L57 26L65 26L61 30Z" fill="#273142"/>
</svg>
