<svg width="78" height="30" viewBox="0 0 78 30" fill="none" xmlns="http://www.w3.org/2000/svg">
<g opacity="0.9">
<rect width="78" height="26" rx="4" fill="#273142"/>
<path d="M9.274 8.9H12.342C13.4427 8.9 14.2703 9.16433 14.825 9.693C15.3883 10.213 15.67 10.915 15.67 11.799C15.67 12.6917 15.3927 13.398 14.838 13.918C14.2833 14.438 13.4513 14.698 12.342 14.698H10.496V18H9.274V8.9ZM12.342 13.645C13.0787 13.645 13.6117 13.489 13.941 13.177C14.279 12.8563 14.448 12.397 14.448 11.799C14.448 11.2097 14.279 10.759 13.941 10.447C13.6117 10.1263 13.0787 9.966 12.342 9.966H10.496V13.645H12.342ZM18.7495 18.078C18.1168 18.078 17.6228 17.9047 17.2675 17.558C16.9121 17.2027 16.7345 16.7087 16.7345 16.076C16.7345 15.4087 16.9251 14.9017 17.3065 14.555C17.6878 14.1997 18.2988 14.022 19.1395 14.022H20.7775V13.359C20.7775 12.891 20.6691 12.553 20.4525 12.345C20.2445 12.1283 19.9195 12.02 19.4775 12.02C19.2521 12.02 19.0615 12.046 18.9055 12.098C18.7495 12.1413 18.6238 12.2063 18.5285 12.293C18.4331 12.371 18.3595 12.462 18.3075 12.566C18.2555 12.67 18.2251 12.774 18.2165 12.878H17.0985C17.1245 12.6093 17.1851 12.3623 17.2805 12.137C17.3758 11.9117 17.5188 11.7167 17.7095 11.552C17.9001 11.3873 18.1385 11.2573 18.4245 11.162C18.7191 11.0667 19.0745 11.019 19.4905 11.019C20.3225 11.019 20.9335 11.214 21.3235 11.604C21.7135 11.9853 21.9085 12.5703 21.9085 13.359V18H20.9075V16.856C20.8208 17.0033 20.7211 17.1507 20.6085 17.298C20.4958 17.4453 20.3528 17.5797 20.1795 17.701C20.0148 17.8137 19.8155 17.9047 19.5815 17.974C19.3475 18.0433 19.0701 18.078 18.7495 18.078ZM19.0745 17.09C19.5945 17.09 20.0061 16.9383 20.3095 16.635C20.6215 16.323 20.7775 15.9027 20.7775 15.374V14.958H19.1915C18.6975 14.958 18.3508 15.049 18.1515 15.231C17.9608 15.4043 17.8655 15.6817 17.8655 16.063C17.8655 16.3663 17.9651 16.6133 18.1645 16.804C18.3638 16.9947 18.6671 17.09 19.0745 17.09ZM26.2604 18.091C25.8444 18.091 25.4631 18.026 25.1164 17.896C24.7784 17.7573 24.4881 17.558 24.2454 17.298C24.0114 17.0293 23.8251 16.7043 23.6864 16.323C23.5564 15.933 23.4914 15.4867 23.4914 14.984V13.996C23.4914 13.528 23.5564 13.112 23.6864 12.748C23.8251 12.3753 24.0114 12.0633 24.2454 11.812C24.4881 11.552 24.7784 11.357 25.1164 11.227C25.4631 11.0883 25.8444 11.019 26.2604 11.019C26.6071 11.019 26.9321 11.0667 27.2354 11.162C27.5474 11.2573 27.8204 11.396 28.0544 11.578C28.2884 11.76 28.4791 11.981 28.6264 12.241C28.7738 12.4923 28.8648 12.774 28.8994 13.086H27.7424C27.6731 12.8 27.5214 12.553 27.2874 12.345C27.0534 12.137 26.7111 12.033 26.2604 12.033C25.7664 12.033 25.3721 12.1977 25.0774 12.527C24.7828 12.8477 24.6354 13.3373 24.6354 13.996V14.984C24.6354 15.7207 24.7828 16.2537 25.0774 16.583C25.3721 16.9123 25.7664 17.077 26.2604 17.077C26.7111 17.077 27.0534 16.9687 27.2874 16.752C27.5214 16.5353 27.6688 16.2927 27.7294 16.024H28.8994C28.7434 16.7087 28.4401 17.2243 27.9894 17.571C27.5474 17.9177 26.9711 18.091 26.2604 18.091ZM32.0635 12.111H29.8665V11.11H35.4045V12.111H33.2075V18H32.0635V12.111ZM37.926 15.231C37.4233 15.0923 37.055 14.854 36.821 14.516C36.587 14.178 36.47 13.749 36.47 13.229C36.47 12.553 36.6737 12.033 37.081 11.669C37.4883 11.2963 38.147 11.11 39.057 11.11H41.67V18H40.513V15.374H39.07L37.484 18H36.21L37.926 15.231ZM40.513 14.386V12.111H39.057C38.511 12.111 38.134 12.202 37.926 12.384C37.718 12.566 37.614 12.852 37.614 13.242C37.614 13.6407 37.718 13.931 37.926 14.113C38.134 14.295 38.511 14.386 39.057 14.386H40.513ZM43.6205 11.11H44.7775V13.996H47.9235V11.11H49.0805V18H47.9235V14.984H44.7775V18H43.6205V11.11ZM51.2686 19.599C51.5112 19.599 51.7192 19.5773 51.8926 19.534C52.0746 19.4907 52.2306 19.4127 52.3606 19.3C52.4992 19.196 52.6249 19.0487 52.7376 18.858C52.8502 18.676 52.9586 18.442 53.0626 18.156L50.2806 11.11H51.5676L53.6346 16.7L55.4936 11.11H56.7286L54.1676 18.156C53.9856 18.65 53.8079 19.053 53.6346 19.365C53.4612 19.6857 53.2662 19.937 53.0496 20.119C52.8329 20.301 52.5816 20.4267 52.2956 20.496C52.0096 20.5653 51.6672 20.6 51.2686 20.6V19.599ZM59.6885 12.111H57.4915V11.11H63.0295V12.111H60.8325V18H59.6885V12.111ZM64.225 11.11H65.382V13.736H66.942C67.852 13.736 68.5107 13.9223 68.918 14.295C69.3253 14.6677 69.529 15.1963 69.529 15.881C69.529 16.557 69.3253 17.0813 68.918 17.454C68.5107 17.818 67.852 18 66.942 18H64.225V11.11ZM66.942 16.999C67.488 16.999 67.865 16.908 68.073 16.726C68.281 16.544 68.385 16.258 68.385 15.868C68.385 15.4693 68.281 15.179 68.073 14.997C67.865 14.815 67.488 14.724 66.942 14.724H65.382V16.999H66.942Z" fill="white"/>
</g>
<path opacity="0.9" d="M39 30L35 26L43 26L39 30Z" fill="#273142"/>
</svg>
