<svg width="18" height="4" viewBox="0 0 18 4" fill="none" xmlns="http://www.w3.org/2000/svg">
<path fill-rule="evenodd" clip-rule="evenodd" d="M2 0.0019989C0.895431 0.0019989 0 0.897429 0 2.002C0 3.10657 0.895431 4.002 2 4.002C3.10457 4.002 4 3.10657 4 2.002C4 0.897429 3.10457 0.0019989 2 0.0019989ZM7 2.002C7 0.897429 7.89543 0.0019989 9 0.0019989C10.1046 0.0019989 11 0.897429 11 2.002C11 3.10657 10.1046 4.002 9 4.002C7.89543 4.002 7 3.10657 7 2.002ZM14 2.002C14 0.897429 14.8954 0.0019989 16 0.0019989C17.1046 0.0019989 18 0.897429 18 2.002C18 3.10657 17.1046 4.002 16 4.002C14.8954 4.002 14 3.10657 14 2.002Z" fill="#516173"/>
</svg>
